<!--?xml version="1.0" encoding="UTF-8"?--><svg id="a" xmlns="http://www.w3.org/2000/svg" viewBox="0 0 720 720" style=""><defs><style>.b{fill:#fff;}.c{fill:none;stroke:#fff;stroke-miterlimit:10;}</style></defs><path class="c aKjohhxI_0" d="M104.62,567.27c-3.76-2.58-11.68-13.87-13.15-17.33-9.02-21.31-2.14-53.22,15.49-90.6l4.47-9.09c1.26-2.5,2.57-5.01,3.92-7.56,129.01,5.38,263.56-5.03,369.5-13.25,55.79-4.31,103.93-8.03,137.88-8.31,25.67-.21,38.44,1.71,44.8,3.71M85,559.51s6.37,7.89,6.38,7.88c22.26,27.57,74.11,36.8,154.59,27.45l12.55-1.56c74.08-10.02,167.37-34.77,257.1-68.29,46.89-17.5,89.04-36.2,118.61-52.6,45.04-24.95,49.06-37.65,48.17-45.03-.48-3.96-8.26-11.6-12.66-13.71m-572.83,28.16l-7.4-.41c-16.96-1.01-33.79-2.31-50.39-3.93l9.72-6.32s-2.59,1.45-2.58,1.45m357.46-169.06c-1.17,2.59-12.65,32.02-13.86,34.67,3.72-.74,7.48-1.47,10.81-2.11,65.04-143.93,60.61-175.86,49.67-186.24-.76-.72-1.58-1.35-2.46-1.88l-6.33-4.33M123.78,427.23c39.11-67.22,105.07-146.19,172.77-211.39,75.79-72.99,128.29-104.2,145.01-99.72"></path><path class="b aKjohhxI_1" d="M675.41,420.84c-2.73-22.41-59.22-18.95-198.14-8.22-102.76,7.97-235.69,18.24-363.34,13.38,38.65-68.46,105.98-149.6,175.62-216.67,81.97-78.92,136.69-109.01,148.39-97.91,3.81,3.6,9.62,19.92-18.3,93.6-9.23,24.35-21.52,53.32-36.75,86.68,3.72-.73,7.48-1.47,10.81-2.11,65.04-143.94,60.62-175.87,49.68-186.25-26.95-25.51-128.71,68.54-159.3,97.95-60.76,58.54-117.85,125.99-156.63,185.09-8.03,12.2-16.18,25.47-23.66,39.22-5.99-.29-11.96-.58-17.91-.91l-14.04-.89c-8.8-.58-17.54-1.26-26.21-2.03l-13.48,9.19c16.59,1.63,33.42,2.92,50.39,3.93l14,.77c.6,.04,1.23,.06,1.86,.08-.22,.39-.43,.77-.63,1.2l-4.45,9.07c-17.65,36.99-28.1,74.94-16.61,102.07,15.83,37.4,70.4,50.94,162.28,40.26l12.55-1.57c74.08-10.02,167.38-34.77,257.1-68.29,46.89-17.5,89.04-36.2,118.61-52.6,45.05-24.95,49.07-37.65,48.17-45.04Zm-51.84,35.66c-29.26,16.25-70.99,34.73-117.53,52.12-91.43,34.17-187.09,59.83-264.43,69.08l-12.7,1.39c-74.71,7.31-130.21-1.95-144.44-35.66-9.02-21.31-2.14-53.22,15.49-90.6l4.46-9.09c1.27-2.49,2.57-5.01,3.92-7.56,129.01,5.38,263.55-5.03,369.49-13.25,55.8-4.31,103.93-8.03,137.88-8.32,48.67-.41,51,6.9,51.07,7.72,.04,.12,.69,9.86-43.22,34.17Z"></path><style data-made-with="vivus-instant">.aKjohhxI_0{stroke-dasharray:2140 2142;stroke-dashoffset:2141;animation:aKjohhxI_draw_0 4800ms linear 0ms infinite,aKjohhxI_fade 4800ms linear 0ms infinite;}.aKjohhxI_1{stroke-dasharray:4133 4135;stroke-dashoffset:4134;animation:aKjohhxI_draw_1 4800ms linear 0ms infinite,aKjohhxI_fade 4800ms linear 0ms infinite;}@keyframes aKjohhxI_draw{100%{stroke-dashoffset:0;}}@keyframes aKjohhxI_fade{0%{stroke-opacity:1;}87.5%{stroke-opacity:1;}100%{stroke-opacity:0;}}@keyframes aKjohhxI_draw_0{6.25%{stroke-dashoffset: 2141}60.416666666666664%{ stroke-dashoffset: 0;}100%{ stroke-dashoffset: 0;}}@keyframes aKjohhxI_draw_1{33.33333333333333%{stroke-dashoffset: 4134}87.5%{ stroke-dashoffset: 0;}100%{ stroke-dashoffset: 0;}}</style></svg>