<svg viewBox="0 0 720 720" fill="none" xmlns="http://www.w3.org/2000/svg" xmlns:anim="http://www.w3.org/2000/anim" anim="" anim:transform-origin="50% 50%" anim:duration="1" anim:ease="none">
  <g id="5f649e24afcd658ccf64513a5ce71950">
    <path id="f4201c65224377cf06ffdbf01b8172c1" d="M123.78 427.23C162.89 360.01 228.85 281.04 296.55 215.84C372.34 142.85 424.84 111.64 441.56 116.12M104.62 567.27C100.86 564.69 92.94 553.4 91.47 549.94C82.45 528.63 89.33 496.72 106.96 459.34L111.43 450.25C112.69 447.75 114 445.24 115.35 442.69C244.36 448.07 378.91 437.66 484.85 429.44C540.64 425.13 588.78 421.41 622.73 421.13C648.4 420.92 661.17 422.84 667.53 424.84L104.62 567.27ZM85 559.51C85 559.51 91.37 567.4 91.38 567.39C113.64 594.96 165.49 604.19 245.97 594.84L258.52 593.28C332.6 583.26 425.89 558.51 515.62 524.99C562.51 507.49 604.66 488.79 634.23 472.39C679.27 447.44 683.29 434.74 682.4 427.36C681.92 423.4 674.14 415.76 669.74 413.65L85 559.51ZM96.91 441.81L89.51 441.4C72.55 440.39 55.72 439.09 39.12 437.47L48.84 431.15C48.84 431.15 46.25 432.6 46.26 432.6L96.91 441.81ZM403.72 263.54C402.55 266.13 391.07 295.56 389.86 298.21C393.58 297.47 397.34 296.74 400.67 296.1C465.71 152.17 461.28 120.24 450.34 109.86C449.58 109.14 448.76 108.51 447.88 107.98L441.55 103.65L403.72 263.54Z" stroke="white" stroke-miterlimit="10"></path>
    <path id="d82eea4f7eef6f0230c622d6b141dc27" d="M675.41 420.84C672.68 398.43 616.19 401.89 477.27 412.62C374.51 420.59 241.58 430.86 113.93 426C152.58 357.54 219.91 276.4 289.55 209.33C371.52 130.41 426.24 100.32 437.94 111.42C441.75 115.02 447.56 131.34 419.64 205.02C410.41 229.37 398.12 258.34 382.89 291.7C386.61 290.97 390.37 290.23 393.7 289.59C458.74 145.65 454.32 113.72 443.38 103.34C416.43 77.83 314.67 171.88 284.08 201.29C223.32 259.83 166.23 327.28 127.45 386.38C119.42 398.58 111.27 411.85 103.79 425.6C97.8 425.31 91.83 425.02 85.88 424.69L71.84 423.8C63.04 423.22 54.3 422.54 45.63 421.77L32.15 430.96C48.74 432.59 65.57 433.88 82.54 434.89L96.54 435.66C97.14 435.7 97.77 435.72 98.4 435.74C98.18 436.13 97.97 436.51 97.77 436.94L93.32 446.01C75.67 483 65.22 520.95 76.71 548.08C92.54 585.48 147.11 599.02 238.99 588.34L251.54 586.77C325.62 576.75 418.92 552 508.64 518.48C555.53 500.98 597.68 482.28 627.25 465.88C672.3 440.93 676.32 428.23 675.42 420.84H675.41ZM623.57 456.5C594.31 472.75 552.58 491.23 506.04 508.62C414.61 542.79 318.95 568.45 241.61 577.7L228.91 579.09C154.2 586.4 98.7 577.14 84.47 543.43C75.45 522.12 82.33 490.21 99.96 452.83L104.42 443.74C105.69 441.25 106.99 438.73 108.34 436.18C237.35 441.56 371.89 431.15 477.83 422.93C533.63 418.62 581.76 414.9 615.71 414.61C664.38 414.2 666.71 421.51 666.78 422.33C666.82 422.45 667.47 432.19 623.56 456.5H623.57Z" fill="white"></path>
  </g>
</svg>