<?xml version="1.0" encoding="UTF-8"?><svg xmlns="http://www.w3.org/2000/svg" viewBox="0 0 720 720"><defs><style>.b,.c{fill:#fff;}.d,.e{fill:none;stroke:#fff;stroke-miterlimit:10;}.e{stroke-width:.75px;}.f{isolation:isolate;}.g{letter-spacing:-.02em;}.h{mix-blend-mode:hard-light;}.c{font-family:BankGothicBT-Medium, BankGothic Md BT;font-size:69.18px;}</style></defs><g class="f"><g id="a"><g class="h"><path class="d" d="M87.14,497.54c-2.37-1.63-7.35-8.72-8.27-10.9-5.68-13.41-1.35-33.49,9.75-57.01l2.81-5.72c.79-1.57,1.62-3.15,2.47-4.76,81.18,3.38,165.85-3.17,232.51-8.34,35.11-2.71,65.4-5.05,86.76-5.23,16.15-.13,24.19,1.08,28.19,2.33M74.79,492.66s4.01,4.96,4.02,4.96c14,17.35,46.63,23.16,97.28,17.27l7.9-.98c46.62-6.31,105.32-21.88,161.78-42.97,29.51-11.01,56.03-22.78,74.64-33.1,28.34-15.7,30.87-23.69,30.31-28.34-.3-2.49-5.2-7.3-7.97-8.63m-360.46,17.72l-4.65-.26c-10.67-.63-21.26-1.45-31.71-2.47l6.12-3.97s-1.63,.91-1.62,.91m224.94-106.38c-.74,1.63-7.96,20.15-8.72,21.81,2.34-.46,4.71-.93,6.8-1.33,40.93-90.57,38.14-110.66,31.26-117.2-.48-.45-.99-.85-1.55-1.18l-3.99-2.73M99.19,409.43c24.61-42.3,66.12-91.99,108.72-133.02,47.69-45.93,80.73-65.57,91.25-62.75"/><path class="b" d="M446.31,405.4c-1.72-14.1-37.27-11.93-124.68-5.17-64.66,5.01-148.31,11.48-228.64,8.42,24.32-43.08,66.69-94.14,110.51-136.34,51.58-49.66,86.01-68.6,93.37-61.61,2.4,2.26,6.05,12.53-11.52,58.9-5.81,15.32-13.54,33.55-23.13,54.54,2.34-.46,4.7-.93,6.8-1.33,40.93-90.57,38.14-110.67,31.26-117.2-16.96-16.05-80.99,43.13-100.24,61.64-38.24,36.84-74.16,79.28-98.56,116.47-5.06,7.68-10.18,16.03-14.89,24.68-3.77-.18-7.53-.36-11.27-.57l-8.84-.56c-5.54-.37-11.04-.79-16.49-1.28l-8.49,5.78c10.44,1.02,21.03,1.84,31.71,2.47l8.81,.49c.37,.02,.77,.04,1.17,.05-.14,.24-.27,.49-.4,.75l-2.8,5.71c-11.11,23.28-17.68,47.16-10.45,64.23,9.96,23.53,44.3,32.05,102.12,25.34l7.9-.99c46.62-6.3,105.32-21.88,161.78-42.97,29.51-11.01,56.03-22.78,74.64-33.1,28.35-15.7,30.87-23.69,30.31-28.34Zm-32.62,22.44c-18.41,10.22-44.67,21.86-73.96,32.8-57.54,21.5-117.73,37.65-166.39,43.47l-7.99,.88c-47.01,4.6-81.94-1.23-90.89-22.44-5.68-13.41-1.35-33.49,9.75-57.01l2.81-5.72c.8-1.57,1.62-3.15,2.47-4.76,81.18,3.38,165.84-3.16,232.51-8.34,35.11-2.71,65.4-5.05,86.76-5.23,30.63-.26,32.09,4.34,32.14,4.86,.02,.07,.43,6.21-27.2,21.5Z"/><g><path class="e" d="M266.53,348.11c1.91,.24,3.29,.79,4.11,1.65,1.16,1.19,1.74,3.41,1.74,6.66v3.37l-7.81,1.32v-2.14m3.87,11.17l3.94,.87v4.22c0,3.26-.58,5.49-1.74,6.67-1.15,1.18-3.35,1.77-6.57,1.77h-20.02c-3.12,0-5.26-.54-6.43-1.63m5.93-6.57v-21.13h17.1"/><path class="e" d="M288.46,382.21v1.48h7.8v-15.38h20.44m-24.37-20.34h3.93v12.38m28.3-12.38h3.94v35.72h-7.88v-1.48"/><path class="e" d="M352.74,375.49v-21.13h21.8m5.88-6.25c1.91,.25,3.28,.79,4.11,1.65,1.14,1.19,1.71,3.41,1.71,6.66v18.82c0,3.26-.57,5.49-1.71,6.67-1.15,1.18-3.35,1.77-6.6,1.77h-24.68c-3.12,0-5.26-.54-6.43-1.63"/><path class="e" d="M436.56,347.97h3.93v27.27c0,3.26-.57,5.49-1.71,6.67-1.15,1.18-3.34,1.77-6.6,1.77h-21.19c-3.09,0-5.23-.54-6.42-1.63m1.97-34.09h3.93v27.52"/><path class="e" d="M486.69,376.96h3.93v6.73h-32.96v-1.48m3.87-34.24h3.94v27.52"/><path class="e" d="M499.79,352.88v1.47h15.81m13.93,22.6h3.93v6.73h-36v-1.48m32.08-34.24h3.93v3.55l-22.42,23.97"/><path class="e" d="M560.8,358.06l-5.07,9.89m-14.98,14.25l-.79,1.48h7.78l3.9-7.81h18.08m-6.41-27.91h3.14l19.22,35.72h-8.75l-.76-1.48"/><path class="e" d="M596.95,382.21h-.48v1.48h7.67v-13.49h5.3m-5.3-7.59v-8.46h16.94m3.06,28.05h-.58l1.49,1.48h11.2l-15.49-13.49h4.38c2.66,0,4.6-.55,5.8-1.65s1.79-2.87,1.79-5.27v-8.37c0-2.43-.6-4.2-1.79-5.29-.92-.84-2.26-1.36-4.02-1.55,.03,.03,.06,.05,.08,.07,.09,.09,.19,.18,.27,.28"/><path class="e" d="M674.55,347.97h3.93v6.39h-15.45v29.33h-7.81v-1.48m-15.38-29.32v1.47h11.45"/></g><text class="c" transform="translate(223.96 382.22) scale(.94 1)"><tspan x="0" y="0">CHOULZA</tspan><tspan class="g" x="383.35" y="0">R</tspan><tspan x="437.61" y="0">T</tspan></text></g></g></g></svg>